<?xml version="1.0" encoding="UTF-8"?>
<svg id="Layer_2" data-name="Layer 2" xmlns="http://www.w3.org/2000/svg" viewBox="0 0 228.08 207.56">
  <g id="Layer_2-2" data-name="Layer 2" fill="#fff">
    <g>
      <path d="M123.76,207.56c-5.84-1.9-8.27-8.68-5.31-14.01,1.96-3.53,6.49-5.49,10.42-4.55.73.17,1.24.61,1.92.8,0-.34-.12-.9.29-1.03l2.8-.16.26.39.35,5.89-4.05.18c-.09-.45.09-.27.35-.44-2.31-3.89-8.15-2.03-8.75,2.33-.93,6.8,6.43,9.95,10.09,4.1l3.59,1.75c-1.05,2.32-2.96,3.81-5.28,4.75h-6.68Z"/>
      <path d="M110,59.12c37.57-1.87,65.26,35.18,52.67,70.78-10.76,30.42-46.67,44.5-75.27,28.91-4.19-2.29-13.26-8.63-15.27-12.87-2.15-4.54.02-10.15,4.87-11.65,6.74-2.08,9.59,3.8,14.23,7.15,12.66,9.16,32.77,9.73,44.48-1.39,6.96-6.61.46-16.6-8.14-13.06-2.08.85-4.05,2.53-6.17,3.51-15.64,7.22-32.31-6.11-28.7-22.9,2.44-11.33,14.46-18.33,25.59-15.03,6.13,1.82,13.07,9.82,18.82,2.46,6.17-7.9-5.74-14.74-11.86-16.97-11.89-4.33-25.27-2.16-35.18,5.64-4.53,3.57-7.87,9.63-14.81,5.48-6.2-3.71-4.39-10.5.03-14.81,9.27-9.03,21.71-14.6,34.71-15.24h0Z"/>
      <path d="M79.28,186.1l4.02,9.58,6.6-8.07,5.46.56-.51,3.33-1.28-.13-.25.29-1.64,11.48,1.39.18-.5,3.34-7.39-.98.49-3.34c.1-.07,1.33.54,1.55-.13l1.01-6.75-5.21,6.31c-.1.06-1.14-.06-1.29-.12-.44-.16-3.24-6.86-3.55-7.84l-1.15,7.4,1.41.16-.49,3.34-6.87-.98.58-3.18,1.48-.02,1.82-11.7-1.42-.37.41-3.06s5.33.7,5.33.7Z"/>
      <path d="M32.32,173.39l2.99,1.33-2.76,5.69-3.04-1.24c.65-3.47-3.52-5.36-6.4-4.34-3.12,1.11-5.53,6.3-3.39,9.11.98,1.28,3.36,2.34,4.96,2.44s1.16-1.16,1.98-2.19l-3.84-1.68,1.4-3.5,8.08,3.36-4.23,9.47-2.98-1.13v-1.14c-3.28.59-7-1.12-9.03-3.71-3.94-5.03-.73-12.91,5.08-14.76,3.65-1.17,8.29-.25,10.56,3l.63-.7h-.01Z"/>
      <path d="M211.17,177.08c4.85-.29,6.85,6.08,3.17,9.06-3.31,2.15-7.28,3.41-10.9,5.01l-1.25-3.06,1.23-.7-5.09-10.83-1.56.51-1.25-2.96c2.9-1.02,5.8-2.75,8.7-3.7,3.73-1.22,8.13.37,7.65,4.84-.08.78-.46,1.17-.7,1.84h0ZM204.15,178.47c1.77-.52,4.99-1.46,3.23-3.85-1.26-1.7-3.13.09-4.65.34l1.42,3.5h0ZM207.48,185.52c1.97-.82,5.37-1.34,3.94-4.2-1.27-2.54-3.86-.3-5.7.16l1.76,4.04Z"/>
      <path d="M186.19,178.13l.89,3.06-1.42.54,2.94,9.02c1.72,6.87-8.65,10.89-13.23,7.07-2.1-1.75-3.7-8.1-4.58-10.9-.07-.23-.09-.47-.08-.71l-1.58.35-1.03-3.08,7.35-2.18.91,3.04-1.24.47c.97,2.72,1.58,6.11,2.78,8.73.85,1.86,1.91,2.21,3.86,1.69.99-.27,2.48-.96,2.67-2.08.41-2.51-2.54-7.55-2.81-10.28l-1.56.34-.89-3.14,7.03-1.94h-.01Z"/>
      <path d="M54.8,180.78l-.89,3.14-1.22-.16,1.06,4.92,3.69-3.61c-2.26-.23-1.05-2.32-.41-3.59l7.1,2.01-1.05,3-1.59-.19-6.84,6.72-1.09,3.3,1.42.56-.89,3.24-7.56-2.11.88-3.34,1.75.35.87-3.23-2.28-9.51-1.58-.55.89-3.07,7.73,2.12h.01Z"/>
      <polygon points="152.6 186.14 153.13 189.48 151.71 189.76 153.84 201.08 158.06 200.49 158.25 197.6 161.63 197.04 162.94 203.12 148.56 205.84 147.85 202.5 149.26 202.32 147.13 190.56 145.65 190.55 145.04 187.37 152.6 186.14"/>
      <path d="M228.08,17.49v2.64l-2.92,9.5c-.98-.5-5.2-1.23-5.71-1.84-.06-.07-.67-1.33-.69-1.42-.2-1.08.13-2.48.15-3.58l-9.83-3.01-2.64,9.14,11.95,3.62c.23.24.68.5.7.86s-1.09,4.08-1.31,4.67c-.34.93-.7,1.31-1.71,1.55l-11.74-3.49-2.57,9.15,10.55,3.17c.18-.03,1.45-2.98,1.73-3.14.2-.12.65,0,.98-.17.3-.14.35-.56.51-.59.87-.18,4.53,1.5,5.67,1.61l-3.34,11.95-30.43-8.97,2.02-6.68.31-.15,2.76.85,7.72-26.47-2.98-1.06,1.77-5.98,1.94-.18,27.08,8.02h.03Z"/>
      <path d="M156.49,27.34l4.13,9.67,3.96.52-.72,6.84-10.37-1.11-6.61-15.41-4.46-.34-.7,7.56c1.5.23,3.42-.44,3.34,1.67-.07,1.75-.55,3.77-.71,5.55l-15.93-1.93.71-6.52c.34-.49,2.62.24,3.27,0l2.97-27.06c-.1-.06-.21-.08-.32-.11-.53-.16-2.71-.12-2.81-.54l.73-5.66c.38-.1.7-.35,1.09-.4,1.1-.14,3.24-.06,4.4,0,4.42.27,10.74.98,15.08,1.81,8.1,1.54,12.43,6.59,11.75,14.98-.4,4.9-3.92,9.46-8.79,10.47h-.01ZM143.29,20.31c3.6.07,9.69,2.38,11.7-1.94,1.24-2.66,1.28-7-1.61-8.59-2.34-1.28-6.21-1.09-8.85-1.44l-1.23,11.96h0Z"/>
      <path d="M33.69,22.83l-6.42,1.94c-.49-.05-1.11-1.28-1.5-1.67-3.79-3.82-10.74-2.05-13.89,1.76-5.67,6.88-1.27,20.79,7.7,22.54,4.36.85,9.56-1.31,11.68-5.28.73-1.37.95-2.97,1.63-4.3l7.83,2.25c-1.67,7.96-7.17,13.24-15.01,15.14C.3,61.37-9.64,25.02,11.46,15.12c3.79-1.78,8.41-2.6,12.37-.91.18-.65-.52-2.29,0-2.73l5.7-1.83,4.15,13.17h0Z"/>
      <path d="M104.57,21.53c0,11.85-9.61,21.46-21.46,21.46s-21.46-9.61-21.46-21.46S71.26.07,83.11.07s21.46,9.61,21.46,21.46ZM81.31,8.28c-16.06,1.81-11.56,31.29,5.58,26.16,12.96-3.88,9.54-27.86-5.58-26.16Z"/>
    </g>
  </g>
</svg>
