<?xml version="1.0" encoding="UTF-8"?>
<svg id="Layer_1" data-name="Layer 1" xmlns="http://www.w3.org/2000/svg" viewBox="0 0 1024 1024">
  <path d="M462.75,205.15c-85.88,0-168.42,36.35-226.45,99.77-25.64,28.07-69.18,29.97-97.25,4.3-14.3-13.05-22.3-30.74-22.33-48.72-.03-30.59,17.75-49.12,29.12-60.21,43.83-42.86,149.05-132.82,316.91-132.82,245.11,0,444.52,199.38,444.52,444.52s-199.41,444.52-444.52,444.52c-167.86,0-273.08-89.96-316.91-132.85-11.37-11.09-29.16-29.59-29.12-60.18.03-17.97,8.04-35.67,22.33-48.75,28.07-25.64,71.61-23.74,97.25,4.3,58.03,63.45,140.57,99.77,226.45,99.77,68.22,0,128.08-20.43,178.92-57.53,35.1-25.57,41.93-46.01,41.99-66.35.03-15.89-5.82-31.52-15.67-42.8-13.3-15.26-30.93-23.55-51.08-23.55-15.85,0-32.55,7.32-46.85,16.63-32.86,21.46-67.62,36.69-107.31,36.69-93.7,0-169.98-76.22-169.98-169.92s76.28-169.98,169.98-169.98c39.68,0,74.45,15.29,107.31,36.72,14.3,9.31,30.99,16.66,46.85,16.66,20.15,0,37.78-8.29,51.08-23.55,9.84-11.31,15.7-26.94,15.67-42.8-.06-20.34-6.88-40.77-41.99-66.38-50.83-37.07-110.7-57.53-178.92-57.53"/>
</svg>